<?xml version="1.0" encoding="UTF-8" standalone="no"?>
<!DOCTYPE svg PUBLIC "-//W3C//DTD SVG 1.1//EN" "http://www.w3.org/Graphics/SVG/1.1/DTD/svg11.dtd">
<svg width="100%" height="100%" viewBox="0 0 1200 700" version="1.1" xmlns="http://www.w3.org/2000/svg" xmlns:xlink="http://www.w3.org/1999/xlink" xml:space="preserve" xmlns:serif="http://www.serif.com/" style="fill-rule:evenodd;clip-rule:evenodd;stroke-linecap:round;stroke-linejoin:round;stroke-miterlimit:1.5;">
    <g id="Plan-de-travail1" serif:id="Plan de travail1" transform="matrix(1,0,0,0.7,0,0)">
        <rect x="0" y="0" width="1200" height="1000" style="fill:none;"/>
        <g transform="matrix(1.12701,0,0,1.61002,207.563,-292.777)">
            <circle cx="330.534" cy="485.373" r="196.992" style="fill:rgb(170,237,241);fill-opacity:0.44;stroke:black;stroke-width:1.77px;"/>
        </g>
        <g transform="matrix(1,0,0,1.42857,463.398,715.586)">
            <text x="40px" y="127.608px" style="font-family:'Arial-BoldMT', 'Arial', sans-serif;font-weight:700;font-size:24px;fill:rgb(19,19,19);">Numérisation</text>
        </g>
        <g transform="matrix(1.7045,0,0,2.435,-132.201,-640.4)">
            <g transform="matrix(1,0,0,1,14.2067,-71.1867)">
                <path d="M403.677,441.2C351.94,441.2 310,483.14 310,534.877C310,551.32 314.328,567.474 322.55,581.715L403.677,534.877L403.677,441.2Z" style="fill:rgb(66,188,218);stroke:black;stroke-width:1.17px;"/>
            </g>
            <g transform="matrix(-0.5,0.866025,-0.866025,-0.5,1082.94,381.534)">
                <path d="M403.677,441.2C351.94,441.2 310,483.14 310,534.877C310,551.32 314.328,567.474 322.55,581.715L403.677,534.877L403.677,441.2Z" style="fill:rgb(66,188,218);stroke:black;stroke-width:1.17px;"/>
            </g>
            <g transform="matrix(-0.5,-0.866025,0.866025,-0.5,156.505,1080.72)">
                <path d="M403.677,441.2C351.94,441.2 310,483.14 310,534.877C310,551.32 314.328,567.474 322.55,581.715L403.677,534.877L403.677,441.2Z" style="fill:rgb(66,188,218);stroke:black;stroke-width:1.17px;"/>
            </g>
        </g>
        <g transform="matrix(8.9928e-17,2.09805,-1.46864,1.28469e-16,1108.79,-202.413)">
            <g transform="matrix(4.16934e-17,-0.680904,0.680904,4.16934e-17,96.4768,754.979)">
                <path d="M894.584,325.274L897.584,328.274L894.584,331.274" style="fill:none;stroke:rgb(128,128,128);stroke-width:2px;stroke-linejoin:miter;stroke-miterlimit:10;"/>
                <path d="M828.443,328.274L897.584,328.274" style="fill:none;stroke:rgb(128,128,128);stroke-width:2px;"/>
            </g>
        </g>
        <g transform="matrix(1.03848,1.48355,-1.03848,1.48355,634.007,-525.256)">
            <g transform="matrix(0.481472,-0.481472,0.481472,0.481472,-128.229,482.284)">
                <path d="M812.735,113.979L816.977,113.979L816.977,118.222" style="fill:none;stroke:rgb(128,128,128);stroke-width:2px;stroke-linejoin:miter;stroke-miterlimit:10;"/>
                <path d="M768.087,162.87C768.087,162.87 809.936,121.021 816.977,113.979" style="fill:none;stroke:rgb(128,128,128);stroke-width:2px;"/>
            </g>
        </g>
        <g transform="matrix(-1.03848,1.48355,1.03848,1.48355,530.58,-525.256)">
            <g transform="matrix(-0.481472,0.481472,0.481472,0.481472,432.487,-78.4324)">
                <path d="M347.61,118.222L347.61,113.979L351.853,113.979" style="fill:none;stroke:rgb(137,137,137);stroke-width:2px;stroke-linejoin:miter;stroke-miterlimit:10;"/>
                <path d="M396.501,162.87C396.501,162.87 354.652,121.021 347.61,113.979" style="fill:none;stroke:rgb(137,137,137);stroke-width:2px;"/>
            </g>
        </g>
        <g transform="matrix(1.03848,-1.48355,-1.03848,-1.48355,634.007,1463.18)">
            <g transform="matrix(0.481472,-0.481472,-0.481472,-0.481472,187.88,798.393)">
                <path d="M816.977,538.326L816.977,542.569L812.735,542.569" style="fill:none;stroke:rgb(128,128,128);stroke-width:2px;stroke-linejoin:miter;stroke-miterlimit:10;"/>
                <path d="M768.087,493.679C768.087,493.679 809.936,535.527 816.977,542.569" style="fill:none;stroke:rgb(128,128,128);stroke-width:2px;"/>
            </g>
        </g>
        <g transform="matrix(-1.03848,-1.48355,1.03848,-1.48355,530.58,1463.18)">
            <g transform="matrix(-0.481472,0.481472,-0.481472,-0.481472,748.596,237.677)">
                <path d="M351.853,542.569L347.61,542.569L347.61,538.326" style="fill:none;stroke:rgb(128,128,128);stroke-width:2px;stroke-linejoin:miter;stroke-miterlimit:10;"/>
                <path d="M396.501,493.679C396.501,493.679 354.652,535.527 347.61,542.569" style="fill:none;stroke:rgb(128,128,128);stroke-width:2px;"/>
            </g>
        </g>
        <g transform="matrix(-8.9928e-17,2.09805,1.46864,1.28469e-16,51.3712,-202.413)">
            <g transform="matrix(-4.16934e-17,0.680904,0.680904,4.16934e-17,96.4768,-34.9789)">
                <path d="M265.576,331.274L262.576,328.274L265.576,325.274" style="fill:none;stroke:rgb(128,128,128);stroke-width:2px;stroke-linejoin:miter;stroke-miterlimit:10;"/>
                <path d="M331.717,328.274L262.576,328.274" style="fill:none;stroke:rgb(128,128,128);stroke-width:2px;"/>
            </g>
        </g>
        <g transform="matrix(1,0,0,1.42857,55.08,300.418)">
            <text x="65.793px" y="127.619px" style="font-family:'ArialMT', 'Arial', sans-serif;font-size:24px;fill:rgb(102,102,102);">T<tspan x="79.563px 87.555px " y="127.619px 127.619px ">ra</tspan>nsport</text>
        </g>
        <g transform="matrix(1,0,0,1.42857,896.026,300.435)">
            <text x="70.674px" y="127.619px" style="font-family:'ArialMT', 'Arial', sans-serif;font-size:24px;fill:rgb(102,102,102);">Industrie</text>
        </g>
        <g transform="matrix(1,0,0,1.42857,830.08,-8.64406)">
            <text x="85.34px" y="127.619px" style="font-family:'ArialMT', 'Arial', sans-serif;font-size:24px;fill:rgb(102,102,102);">Santé</text>
        </g>
        <g transform="matrix(1,0,0,1.42857,830.08,618.756)">
            <text x="59.342px" y="127.619px" style="font-family:'ArialMT', 'Arial', sans-serif;font-size:24px;fill:rgb(102,102,102);">Agriculture</text>
        </g>
        <g transform="matrix(1,0,0,1.42857,1058.12,618.756)">
            <text x="40.001px" y="127.619px" style="font-family:'ArialMT', 'Arial', sans-serif;font-size:24px;fill:rgb(102,102,102);">etc...</text>
        </g>
        <g transform="matrix(1,0,0,1.42857,102.386,618.739)">
            <text x="75.338px" y="127.619px" style="font-family:'ArialMT', 'Arial', sans-serif;font-size:24px;fill:rgb(102,102,102);">Energie</text>
        </g>
        <g transform="matrix(1,0,0,1.42857,9.86065,-8.66078)">
            <text x="61.414px" y="127.619px" style="font-family:'ArialMT', 'Arial', sans-serif;font-size:24px;fill:rgb(102,102,102);">Bâti commercial et</text>
            <text x="105.412px" y="159.619px" style="font-family:'ArialMT', 'Arial', sans-serif;font-size:24px;fill:rgb(102,102,102);">résidentiel</text>
        </g>
        <g transform="matrix(1,0,0,1.42857,402.916,263.67)">
            <text x="40.634px" y="124.754px" style="font-family:'ArialMT', 'Arial', sans-serif;font-size:20px;">Data centers</text>
        </g>
        <g transform="matrix(1,0,0,1.42857,482.765,48.279)">
            <text x="58.983px" y="124.754px" style="font-family:'ArialMT', 'Arial', sans-serif;font-size:20px;">Services</text>
        </g>
        <g transform="matrix(1,0,0,1.42857,562.601,263.67)">
            <text x="57.86px" y="124.754px" style="font-family:'ArialMT', 'Arial', sans-serif;font-size:20px;">Réseaux</text>
        </g>
        <g transform="matrix(1,0,0,1.42857,461.525,420.48)">
            <text x="60.186px" y="124.754px" style="font-family:'ArialMT', 'Arial', sans-serif;font-size:20px;">Équipements</text>
            <text x="70.757px" y="144.754px" style="font-family:'ArialMT', 'Arial', sans-serif;font-size:20px;">utilisateurs</text>
        </g>
        <g transform="matrix(1,0,0,1.42857,367.392,-120.265)">
            <text x="103.991px" y="127.608px" style="font-family:'Arial-BoldMT', 'Arial', sans-serif;font-weight:700;font-size:24px;fill:rgb(19,19,19);">Secteur numérique</text>
        </g>
        <g transform="matrix(1,0,0,1.42857,-59.92,-43.8244)">
            <g transform="matrix(1,-0,-0,1,59.92,30.6771)">
                <path d="M583.08,115.652L580.08,118.652L577.08,115.652" style="fill:none;stroke:black;stroke-width:2px;stroke-linejoin:miter;stroke-miterlimit:10;"/>
                <path d="M580.08,93.849L580.08,118.652" style="fill:none;stroke:black;stroke-width:2px;"/>
            </g>
        </g>
        <g transform="matrix(-0.707107,1.01015,-0.707107,-1.01015,1019.68,364.913)">
            <g transform="matrix(-0.707107,-0.707107,0.707107,-0.707107,540.402,901.648)">
                <path d="M461.544,606.639L461.544,602.396L465.787,602.396" style="fill:none;stroke:black;stroke-width:2px;stroke-linejoin:miter;stroke-miterlimit:10;"/>
                <path d="M479.082,619.935C479.082,619.935 465.399,606.252 461.544,602.396" style="fill:none;stroke:black;stroke-width:2px;"/>
            </g>
        </g>
        <g transform="matrix(-0.707107,-1.01015,0.707107,-1.01015,1038.88,1657.91)">
            <g transform="matrix(-0.707107,0.707107,-0.707107,-0.707107,1555.22,86.0242)">
                <path d="M687.68,602.396L691.922,602.396L691.922,606.639" style="fill:none;stroke:black;stroke-width:2px;stroke-linejoin:miter;stroke-miterlimit:10;"/>
                <path d="M674.384,619.935C674.384,619.935 688.067,606.252 691.922,602.396" style="fill:none;stroke:black;stroke-width:2px;"/>
            </g>
        </g>
        <g transform="matrix(1,0,0,1.42857,405.575,-81.3109)">
            <text x="60.673px" y="121.889px" style="font-family:'ArialMT', 'Arial', sans-serif;font-size:16px;fill:rgb(19,19,19);">Existant matériel dont on estime</text>
            <text x="43.571px" y="135.889px" style="font-family:'ArialMT', 'Arial', sans-serif;font-size:16px;fill:rgb(19,19,19);">l&apos;empreinte environnementale directe</text>
        </g>
        <g transform="matrix(1,0,0,1.42857,409.773,754.753)">
            <text x="54.347px" y="121.889px" style="font-family:'ArialMT', 'Arial', sans-serif;font-size:16px;fill:rgb(19,19,19);">Phénonème d’expansion dont on</text>
            <text x="81.659px" y="139.889px" style="font-family:'ArialMT', 'Arial', sans-serif;font-size:16px;fill:rgb(19,19,19);">estime les ef<tspan x="171.183px 175.628px " y="139.889px 139.889px ">fe</tspan>ts indirects</text>
        </g>
    </g>
</svg>
